<svg xmlns="http://www.w3.org/2000/svg" width="114" height="19" fill="none"><g clip-path="url(#a)"><path fill="#fff" d="M7.199 18.288c-1.232 0-2.32-.208-3.264-.624-.944-.432-1.688-1.04-2.232-1.824-.544-.8-.824-1.768-.84-2.904h3.24c.032.784.312 1.448.84 1.992.544.528 1.288.792 2.232.792.816 0 1.464-.192 1.944-.576.48-.4.72-.928.72-1.584 0-.688-.216-1.224-.648-1.608-.416-.384-.976-.696-1.68-.936l-2.256-.768C3.959 9.8 2.967 9.224 2.279 8.52 1.607 7.816 1.27 6.88 1.27 5.712c-.016-.992.216-1.84.696-2.544.496-.72 1.168-1.272 2.016-1.656.848-.4 1.824-.6 2.928-.6 1.12 0 2.104.2 2.952.6.864.4 1.536.96 2.016 1.68.496.72.76 1.576.792 2.568H9.383c-.016-.592-.248-1.112-.696-1.56-.432-.464-1.04-.696-1.824-.696-.672-.016-1.24.152-1.704.504-.448.336-.672.832-.672 1.488 0 .56.176 1.008.528 1.344.352.32.832.592 1.44.816.608.224 1.304.464 2.088.72.832.288 1.592.624 2.28 1.008.688.384 1.24.896 1.656 1.536.416.624.624 1.432.624 2.424 0 .88-.224 1.696-.672 2.448-.448.752-1.112 1.36-1.992 1.824-.88.448-1.96.672-3.24.672ZM20.295 18c-1.248 0-2.248-.304-3-.912-.752-.608-1.128-1.688-1.128-3.24V8.664h-2.04V6.096h2.04l.36-3.192h2.712v3.192h3.216v2.568H19.24v5.208c0 .576.12.976.36 1.2.256.208.688.312 1.296.312h1.488V18h-2.088Zm4.078 0V6.096h2.736l.288 2.232a4.918 4.918 0 0 1 1.752-1.824c.752-.464 1.632-.696 2.64-.696v3.24h-.864c-.672 0-1.272.104-1.8.312a2.482 2.482 0 0 0-1.248 1.08c-.288.512-.432 1.224-.432 2.136V18h-3.072Zm12.9.288c-1.025 0-1.865-.16-2.52-.48-.657-.336-1.145-.776-1.465-1.32a3.485 3.485 0 0 1-.48-1.8c0-1.104.432-2 1.296-2.688.864-.688 2.16-1.032 3.888-1.032h3.024v-.288c0-.816-.232-1.416-.696-1.8-.464-.384-1.04-.576-1.728-.576-.624 0-1.168.152-1.632.456-.464.288-.752.72-.864 1.296h-3c.08-.864.368-1.616.864-2.256a4.9 4.9 0 0 1 1.968-1.464c.8-.352 1.696-.528 2.688-.528 1.696 0 3.032.424 4.008 1.272.976.848 1.464 2.048 1.464 3.6V18h-2.616l-.288-1.92a4.401 4.401 0 0 1-1.488 1.584c-.624.416-1.432.624-2.424.624Zm.695-2.4c.88 0 1.56-.288 2.04-.864.496-.576.808-1.288.936-2.136h-2.616c-.816 0-1.4.152-1.752.456-.352.288-.528.648-.528 1.08 0 .464.176.824.528 1.08.352.256.816.384 1.392.384ZM51.44 18c-1.248 0-2.248-.304-3-.912-.752-.608-1.128-1.688-1.128-3.24V8.664h-2.04V6.096h2.04l.36-3.192h2.712v3.192H53.6v2.568h-3.216v5.208c0 .576.12.976.36 1.2.256.208.688.312 1.296.312h1.488V18H51.44Zm7.293 0L54.365 6.096h3.216l3.024 9 3.024-9h3.216L62.453 18h-3.72Zm14.528.288c-1.2 0-2.264-.256-3.192-.768a5.559 5.559 0 0 1-2.184-2.16c-.528-.928-.792-2-.792-3.216 0-1.232.256-2.328.768-3.288a5.687 5.687 0 0 1 2.16-2.232c.928-.544 2.016-.816 3.264-.816 1.168 0 2.2.256 3.096.768a5.407 5.407 0 0 1 2.088 2.112c.512.88.768 1.864.768 2.952 0 .176-.008.36-.024.552 0 .192-.008.392-.024.6h-9.048c.064.928.384 1.656.96 2.184.592.528 1.304.792 2.136.792.624 0 1.144-.136 1.56-.408.432-.288.752-.656.96-1.104h3.12a5.68 5.68 0 0 1-1.128 2.064 5.423 5.423 0 0 1-1.92 1.44c-.752.352-1.608.528-2.568.528Zm.024-9.984a3.23 3.23 0 0 0-1.992.648c-.576.416-.944 1.056-1.104 1.92h5.928c-.048-.784-.336-1.408-.864-1.872-.528-.464-1.184-.696-1.968-.696ZM81.101 18V6.096h2.736l.288 2.232a4.918 4.918 0 0 1 1.752-1.824c.752-.464 1.632-.696 2.64-.696v3.24h-.864c-.672 0-1.272.104-1.8.312a2.482 2.482 0 0 0-1.248 1.08c-.288.512-.432 1.224-.432 2.136V18H81.1Zm13.715.288c-1.056 0-1.984-.168-2.784-.504-.8-.352-1.44-.832-1.92-1.44a4.134 4.134 0 0 1-.864-2.112h3.096c.096.464.352.864.768 1.2.432.32.984.48 1.656.48.672 0 1.16-.136 1.464-.408.32-.272.48-.584.48-.936 0-.512-.224-.856-.672-1.032-.448-.192-1.072-.376-1.872-.552a20.45 20.45 0 0 1-1.56-.408 8.012 8.012 0 0 1-1.464-.6 3.392 3.392 0 0 1-1.056-.96c-.272-.4-.408-.888-.408-1.464 0-1.056.416-1.944 1.248-2.664.848-.72 2.032-1.08 3.552-1.08 1.408 0 2.528.328 3.36.984.848.656 1.352 1.56 1.512 2.712h-2.904c-.176-.88-.84-1.32-1.992-1.32-.576 0-1.024.112-1.344.336-.304.224-.456.504-.456.84 0 .352.232.632.696.84.464.208 1.08.4 1.848.576.832.192 1.592.408 2.28.648.704.224 1.264.568 1.68 1.032.416.448.624 1.096.624 1.944.016.736-.176 1.4-.576 1.992-.4.592-.976 1.056-1.728 1.392-.752.336-1.64.504-2.664.504Zm12.754 0c-1.2 0-2.264-.256-3.192-.768a5.559 5.559 0 0 1-2.184-2.16c-.528-.928-.792-2-.792-3.216 0-1.232.256-2.328.768-3.288a5.687 5.687 0 0 1 2.16-2.232c.928-.544 2.016-.816 3.264-.816 1.168 0 2.2.256 3.096.768a5.407 5.407 0 0 1 2.088 2.112c.512.88.768 1.864.768 2.952 0 .176-.008.36-.024.552 0 .192-.008.392-.024.6h-9.048c.064.928.384 1.656.96 2.184.592.528 1.304.792 2.136.792.624 0 1.144-.136 1.56-.408.432-.288.752-.656.96-1.104h3.12a5.68 5.68 0 0 1-1.128 2.064 5.423 5.423 0 0 1-1.92 1.44c-.752.352-1.608.528-2.568.528Zm.024-9.984a3.23 3.23 0 0 0-1.992.648c-.576.416-.944 1.056-1.104 1.92h5.928c-.048-.784-.336-1.408-.864-1.872-.528-.464-1.184-.696-1.968-.696Z"/></g><defs><clipPath id="a"><path fill="#fff" d="M0 0h114v19H0z"/></clipPath></defs></svg>